<svg width="438" height="424" viewBox="0 0 438 424" fill="none" xmlns="http://www.w3.org/2000/svg">
<path d="M184.76 421.913L184.759 421.913C129.431 415.533 80.4451 379.933 49.3041 337.713L49.3036 337.712C18.0769 295.511 4.69686 246.513 1.60083 194.48C-1.49711 142.415 5.91225 87.4869 36.9763 52.3407C68.1394 17.0956 123.066 1.60887 178.807 1.0095L178.802 0.50953L178.807 1.0095C234.416 0.410485 290.71 14.7861 340.613 50.018C390.548 85.2721 434.012 141.549 436.902 200.433C439.692 259.418 401.815 321.281 351.879 363.528C301.957 405.762 240.09 428.393 184.76 421.913Z" fill="#EBEBEB" stroke="#18B860"/>
</svg>
