<svg width="100" height="100" viewBox="0 0 100 100" fill="none" xmlns="http://www.w3.org/2000/svg">
    <path
        d="M50 50H63.5437C70.7261 50 77.6144 47.1468 82.6931 42.0681C87.7718 36.9894 90.625 30.1011 90.625 22.9188V18.4H77.0813C73.5244 18.4 70.0023 19.1007 66.7163 20.462C63.4302 21.8234 60.4445 23.8187 57.9297 26.3341C55.4149 28.8495 53.4202 31.8357 52.0596 35.122C50.6991 38.4084 49.9992 41.9306 50 45.4875H36.4563C32.8994 45.4875 29.3773 44.7868 26.0913 43.4255C22.8052 42.0641 19.8195 40.0688 17.3047 37.5534C14.7899 35.038 12.7952 32.0518 11.4346 28.7655C10.0741 25.4791 9.37418 21.9569 9.375 18.4V9.375H22.9187C30.1011 9.375 36.9894 12.2282 42.0681 17.3069C47.1468 22.3856 50 29.2739 50 36.4563V63.5437M27.4312 63.5437H72.5687V81.6C72.5687 83.9936 71.6179 86.2891 69.9254 87.9816C68.2329 89.6742 65.9373 90.625 63.5437 90.625H36.4563C34.0627 90.625 31.7671 89.6742 30.0746 87.9816C28.3821 86.2891 27.4312 83.9936 27.4312 81.6V63.5437Z"
        stroke="#A6DA95" stroke-linecap="round" stroke-linejoin="round" />
</svg>