<svg width="168" height="251" viewBox="0 0 168 251" fill="none" xmlns="http://www.w3.org/2000/svg">
    <path
        d="M0 137C0 131.477 4.47715 127 10 127H158C163.523 127 168 131.477 168 137V201C168 228.614 145.614 251 118 251H50C22.3858 251 0 228.614 0 201V137Z"
        fill="#EBEBEB" />
    <mask id="path-2-inside-1_1_40" fill="white">
        <path
            d="M69.3052 196.608H99.3052C99.3052 204.892 92.5895 211.608 84.3052 211.608C76.0209 211.608 69.3052 204.892 69.3052 196.608Z" />
    </mask>
    <path
        d="M69.3052 196.608H99.3052H69.3052ZM100.305 196.608C100.305 205.444 93.1417 212.608 84.3052 212.608C75.4686 212.608 68.3052 205.444 68.3052 196.608H70.3052C70.3052 204.34 76.5732 210.608 84.3052 210.608C92.0372 210.608 98.3052 204.34 98.3052 196.608H100.305ZM84.3052 212.608C75.4686 212.608 68.3052 205.444 68.3052 196.608H70.3052C70.3052 204.34 76.5732 210.608 84.3052 210.608V212.608ZM100.305 196.608C100.305 205.444 93.1417 212.608 84.3052 212.608V210.608C92.0372 210.608 98.3052 204.34 98.3052 196.608H100.305Z"
        fill="black" mask="url(#path-2-inside-1_1_40)" />
    <mask id="path-4-inside-2_1_40" fill="white">
        <path
            d="M69.6202 174.972L54.6734 176.234L54.6313 175.736C54.2827 171.609 57.3459 167.98 61.4734 167.631C65.6008 167.283 69.2294 170.346 69.5781 174.473L69.6202 174.972Z" />
    </mask>
    <path
        d="M69.6202 174.972L54.6734 176.234L69.6202 174.972ZM53.6349 175.82C53.2397 171.142 56.7114 167.03 61.3892 166.635C66.067 166.24 70.1794 169.711 70.5746 174.389L68.5816 174.558C68.2795 170.98 65.1347 168.326 61.5576 168.628C57.9804 168.93 55.3256 172.075 55.6278 175.652L53.6349 175.82ZM61.3892 166.635C66.067 166.24 70.1794 169.711 70.5746 174.389L70.6166 174.887L68.6237 175.056L68.5816 174.558C68.2795 170.98 65.1347 168.326 61.5576 168.628L61.3892 166.635ZM53.677 176.318L53.6349 175.82C53.2397 171.142 56.7114 167.03 61.3892 166.635L61.5576 168.628C57.9804 168.93 55.3256 172.075 55.6278 175.652L55.6699 176.15L53.677 176.318Z"
        fill="black" mask="url(#path-4-inside-2_1_40)" />
    <mask id="path-6-inside-3_1_40" fill="white">
        <path
            d="M113.607 177.721L98.7848 175.418L98.8616 174.924C99.4977 170.831 103.331 168.028 107.424 168.665C111.517 169.301 114.32 173.134 113.684 177.227L113.607 177.721Z" />
    </mask>
    <path
        d="M113.607 177.721L98.7848 175.418L113.607 177.721ZM97.8734 174.77C98.5944 170.132 102.939 166.955 107.578 167.676C112.217 168.397 115.393 172.742 114.672 177.381L112.695 177.074C113.247 173.527 110.818 170.204 107.271 169.653C103.724 169.101 100.401 171.53 99.8497 175.077L97.8734 174.77ZM107.578 167.676C112.217 168.397 115.393 172.742 114.672 177.381L114.595 177.875L112.619 177.568L112.695 177.074C113.247 173.527 110.818 170.204 107.271 169.653L107.578 167.676ZM97.7966 175.264L97.8734 174.77C98.5944 170.132 102.939 166.955 107.578 167.676L107.271 169.653C103.724 169.101 100.401 171.53 99.8497 175.077L99.7729 175.571L97.7966 175.264Z"
        fill="black" mask="url(#path-6-inside-3_1_40)" />
    <path
        d="M6.88581 199.678C6.79892 199.504 6.81401 200.062 6.81088 200.256C6.78464 201.883 6.98415 203.539 7.19627 205.149C7.6958 208.939 8.61625 212.952 10.3222 216.389C11.893 219.553 14.1721 222.813 17.0772 224.9C17.4164 225.143 17.87 225.564 18.2548 225.692"
        stroke="white" stroke-width="2" stroke-linecap="round" />
    <path d="M21.5306 228.004C22.1866 228.455 23.2783 228.609 23.6502 229.353" stroke="white"
        stroke-width="2" stroke-linecap="round" />
    <path
        d="M153.719 131.657C156.159 131.831 158.966 132.618 160.185 134.89C161.127 136.648 160.656 139.172 160.656 141.099"
        stroke="white" stroke-width="2" stroke-linecap="round" />
    <path d="M161.234 144.953C161.641 146.48 161.427 148.2 161.427 149.77" stroke="white"
        stroke-width="2" stroke-linecap="round" />
    <rect width="10" height="88" transform="translate(79 39)" fill="#EBEBEB" />
    <path d="M52 48C66.9117 48 79 60.0883 79 75V83C64.0883 83 52 70.9117 52 56V48Z" fill="#EBEBEB" />
    <path
        d="M74.7142 75.9685C74.4759 75.3134 73.4456 74.7026 72.9371 74.2771C71.6678 73.2151 70.5675 72.0254 69.4044 70.8514C67.653 69.0837 65.9709 67.1915 64.5014 65.1777C62.5238 62.4676 61.4891 58.9959 60.2621 55.9283"
        stroke="white" stroke-width="2" stroke-linecap="round" />
    <path d="M115 74C100.088 74 88 86.0883 88 101V109C102.912 109 115 96.9117 115 82V74Z"
        fill="#EBEBEB" />
    <path d="M94.947 99.2844C100.829 96.117 105.738 90.5309 105.738 83.4835" stroke="white"
        stroke-width="2" stroke-linecap="round" />
    <path
        d="M107.475 11.5992C106.944 6.79214 102.618 3.32533 97.8105 3.85583C87.7958 4.96106 80.5733 13.9755 81.6785 23.9902L83.5167 40.6458L86.8478 40.2782C99.8298 38.8455 109.192 27.1601 107.76 14.1781L107.475 11.5992Z"
        fill="#EBEBEB" />
    <path
        d="M61.1801 10.1227C61.937 5.34609 66.4228 2.08748 71.1994 2.8444C81.1507 4.42131 87.9395 13.7668 86.3626 23.7181L83.74 40.2683L80.4299 39.7438C67.5301 37.6997 58.7298 25.5852 60.774 12.6853L61.1801 10.1227Z"
        fill="#EBEBEB" />
</svg>
    